<?xml version="1.0" encoding="iso-8859-1"?>
<!-- Generator: Adobe Illustrator 19.0.0, SVG Export Plug-In . SVG Version: 6.00 Build 0)  -->
<svg version="1.1" id="Capa_1" xmlns="http://www.w3.org/2000/svg" xmlns:xlink="http://www.w3.org/1999/xlink" x="0px" y="0px"
	 viewBox="0 0 480.157 480.157" style="enable-background:new 0 0 480.157 480.157;" xml:space="preserve">
<g>
	<g>
		<g>
			<path d="M477.814,234.461L245.734,2.381c-3.124-3.123-8.188-3.123-11.312,0L2.342,234.461c-3.124,3.125-3.123,8.19,0.002,11.314
				c1.5,1.499,3.534,2.342,5.654,2.342h32.08v224c0,4.418,3.582,8,8,8h384c4.418,0,8-3.582,8-8v-224h32.08
				c4.418-0.001,7.999-3.583,7.998-8.002C480.156,237.995,479.314,235.961,477.814,234.461z M432.078,232.117c-4.418,0-8,3.582-8,8
				v224h-368v-224c0-4.418-3.582-8-8-8h-20.8l212.8-212.8l212.8,212.8H432.078z"/>
			<path d="M206.87,281.717c-12.371-12.621-32.631-12.824-45.253-0.453c-12.621,12.371-12.824,32.631-0.453,45.253
				c12.371,12.621,32.631,12.824,45.253,0.453c0.152-0.149,0.303-0.3,0.453-0.453l57.328,33.096
				c-4.73,17.028,5.24,34.667,22.268,39.397c17.028,4.73,34.667-5.24,39.397-22.268c4.73-17.028-5.24-34.667-22.268-39.397
				c-11.217-3.116-23.241,0.106-31.397,8.412l-57.408-33.152c1.717-5.528,1.717-11.448,0-16.976l57.336-33.112
				c6.025,6.133,14.259,9.591,22.856,9.6c17.673,0.035,32.028-14.264,32.063-31.937c0.035-17.673-14.264-32.028-31.937-32.063
				c-17.673-0.035-32.028,14.264-32.063,31.937c-0.006,2.897,0.382,5.782,1.153,8.575L206.87,281.717z M184.078,320.117
				c-8.837,0-16-7.163-16-16s7.163-16,16-16s16,7.163,16,16S192.915,320.117,184.078,320.117z M281.073,360.127
				c0.002-0.003,0.004-0.007,0.006-0.01c4.418-7.648,14.197-10.269,21.848-5.856c7.655,4.415,10.281,14.199,5.866,21.854
				c-4.415,7.655-14.199,10.281-21.854,5.866C279.284,377.566,276.658,367.782,281.073,360.127z M279.47,235.973
				c2.287-8.535,11.061-13.601,19.596-11.314c8.535,2.287,13.601,11.06,11.314,19.596s-11.06,13.601-19.596,11.314
				c-4.098-1.098-7.592-3.778-9.714-7.452C278.936,244.446,278.36,240.073,279.47,235.973z"/>
		</g>
	</g>
</g>
<g>
</g>
<g>
</g>
<g>
</g>
<g>
</g>
<g>
</g>
<g>
</g>
<g>
</g>
<g>
</g>
<g>
</g>
<g>
</g>
<g>
</g>
<g>
</g>
<g>
</g>
<g>
</g>
<g>
</g>
</svg>
