<?xml version="1.0" encoding="iso-8859-1"?>
<!-- Generator: Adobe Illustrator 19.0.0, SVG Export Plug-In . SVG Version: 6.00 Build 0)  -->
<svg version="1.1" id="Layer_1" xmlns="http://www.w3.org/2000/svg" xmlns:xlink="http://www.w3.org/1999/xlink" x="0px" y="0px"
	 viewBox="0 0 493.03 493.03" style="enable-background:new 0 0 493.03 493.03;" xml:space="preserve">
<g>
	<g>
		<path d="M451.315,349.67c-19.029,0-34.927,13.102-39.506,30.72h-32.174v-71.68h30.72V117.152l46.115,26.368l10.17-17.78
			L251.905,2.96l-5.6-2.96L26.39,125.74l10.17,17.78l46.115-26.368V308.71h30.72v71.68H81.221
			c-4.579-17.618-20.477-30.72-39.506-30.72c-22.585,0-40.96,18.37-40.96,40.96c0,22.59,18.375,40.96,40.96,40.96
			c19.029,0,34.927-13.102,39.506-30.72h52.654v-92.16h51.2h30.72v57.2l-51.004,51.004c-6.093-3.597-13.103-5.804-20.676-5.804
			c-22.585,0-40.96,18.37-40.96,40.96s18.375,40.96,40.96,40.96c22.585,0,40.96-18.37,40.96-40.96
			c0-7.574-2.206-14.585-5.803-20.677l57.003-57.003v-65.68h20.48v65.68l57.003,57.003c-3.597,6.092-5.803,13.103-5.803,20.677
			c0,22.59,18.375,40.96,40.96,40.96c22.585,0,40.96-18.37,40.96-40.96s-18.375-40.96-40.96-40.96
			c-7.573,0-14.584,2.206-20.676,5.804l-51.004-51.004v-57.2h30.72h51.2v92.16h52.654c4.579,17.618,20.477,30.72,39.506,30.72
			c22.585,0,40.96-18.37,40.96-40.96C492.275,368.04,473.9,349.67,451.315,349.67z M41.715,411.11c-11.295,0-20.48-9.19-20.48-20.48
			s9.185-20.48,20.48-20.48s20.48,9.19,20.48,20.48S53.01,411.11,41.715,411.11z M144.115,472.55c-11.295,0-20.48-9.19-20.48-20.48
			s9.185-20.48,20.48-20.48c11.295,0,20.48,9.19,20.48,20.48S155.41,472.55,144.115,472.55z M348.915,431.59
			c11.295,0,20.48,9.19,20.48,20.48s-9.185,20.48-20.48,20.48c-11.295,0-20.48-9.19-20.48-20.48S337.62,431.59,348.915,431.59z
			 M287.475,288.23h-81.92V175.59h81.92V288.23z M307.955,288.23V155.11h-122.88v133.12h-81.92V105.442l143.36-81.972l143.36,81.972
			V288.23H307.955z M451.315,411.11c-11.295,0-20.48-9.19-20.48-20.48s9.185-20.48,20.48-20.48s20.48,9.19,20.48,20.48
			S462.61,411.11,451.315,411.11z"/>
	</g>
</g>
<g>
</g>
<g>
</g>
<g>
</g>
<g>
</g>
<g>
</g>
<g>
</g>
<g>
</g>
<g>
</g>
<g>
</g>
<g>
</g>
<g>
</g>
<g>
</g>
<g>
</g>
<g>
</g>
<g>
</g>
</svg>
