<svg xmlns="http://www.w3.org/2000/svg" viewBox="0 0 357.81 504.855">
  <defs>
    <style>
      .cls-1 {
        fill: #eb3b5a;
      }
    </style>
  </defs>
  <g id="indian-rupee" transform="translate(-139.415)">
    <path id="Path_1" data-name="Path 1" class="cls-1" d="M485.474,116.384H405.942c-5.3-43.921-27.629-75.564-56.468-94.9h136c6.479,0,11.75-4.818,11.75-10.742S491.953,0,485.474,0H151.165c-6.48,0-11.75,4.819-11.75,10.742s5.271,10.742,11.75,10.742h142.11c37.97,6.415,81.21,35.3,89.2,94.9H151.165c-6.48,0-11.75,4.819-11.75,10.743s5.271,10.742,11.75,10.742H383.986c-.47,29.864-11.649,54.079-33.571,71.943-62.142,50.489-189.01,37.6-190.252,37.506-4.7-.43-9.5,1.719-11.75,5.647a10.036,10.036,0,0,0,1.477,12.062L372.976,501.142a12.224,12.224,0,0,0,8.9,3.714,12.419,12.419,0,0,0,7.688-2.609,10.14,10.14,0,0,0,1.208-15.162L185.979,270.337c44.181,1.044,128.849-2.854,180.013-44.442,27.16-22.068,41.025-51.747,41.495-88.025h77.988c6.479,0,11.75-4.819,11.75-10.742S491.987,116.384,485.474,116.384Z" transform="translate(0)"/>
  </g>
</svg>
